<svg xmlns="http://www.w3.org/2000/svg" xml:space="preserve" style="enable-background:new 0 0 100 100" viewBox="0 0 100 100"><path d="M1.7 24.4v51.3c0 6 2.4 11.8 6.6 16 4.3 4.3 10 6.6 16 6.6h51.3c6 0 11.8-2.4 16-6.6 4.3-4.3 6.6-10 6.6-16V24.4C98.2 11.9 88 1.7 75.5 1.7H24.4C11.9 1.7 1.7 11.9 1.7 24.4zm8.9 2c0-8.7 7.1-15.8 15.8-15.8h47.4c8.7 0 15.8 7.1 15.8 15.8v47.4c0 8.7-7.1 15.8-15.8 15.8H26.4c-8.7 0-15.8-7.1-15.8-15.8V26.4zm17.8 23.7c0-8.8 5.3-16.7 13.4-20 8.1-3.4 17.4-1.5 23.6 4.7s8.1 15.5 4.7 23.6a21.77 21.77 0 0 1-20 13.4c-12-.1-21.7-9.8-21.7-21.7zM74.9 20c2.3 0 4.3 1.4 5.2 3.5.9 2.1.4 4.5-1.2 6.1-1.6 1.6-4 2.1-6.2 1.2-2.1-.9-3.5-2.9-3.5-5.2a5.6 5.6 0 0 1 5.7-5.6z" style="fill-rule:evenodd;clip-rule:evenodd;fill:#009de3"/></svg>
